<svg width="26" height="26" viewBox="0 0 26 26" fill="none" xmlns="http://www.w3.org/2000/svg">
<path d="M6.22919 6.5C6.22919 6.05127 5.86542 5.6875 5.41669 5.6875C4.96796 5.6875 4.60419 6.05127 4.60419 6.5V19.5C4.60419 19.9487 4.96796 20.3125 5.41669 20.3125C5.86542 20.3125 6.22919 19.9487 6.22919 19.5L6.22919 6.5Z" fill="#A7A7A7"/>
<path d="M16.7783 5.7027C16.045 5.62429 15.3158 5.85736 14.5338 6.22432C13.7555 6.58953 12.8028 7.14923 11.5995 7.85613L11.5251 7.89984C10.3216 8.60685 9.36886 9.16651 8.66904 9.66959C7.96458 10.176 7.4064 10.6993 7.11011 11.3765C6.65777 12.4102 6.65777 13.5898 7.11011 14.6235C7.4064 15.3007 7.96458 15.824 8.66904 16.3304C9.36886 16.8335 10.3215 17.3931 11.5251 18.1001L11.5995 18.1439C12.8028 18.8508 13.7555 19.4105 14.5338 19.7757C15.3158 20.1426 16.045 20.3757 16.7783 20.2973C17.8959 20.1778 18.9068 19.5818 19.5623 18.6637C19.9905 18.0641 20.1559 17.313 20.2344 16.4424C20.3125 15.5755 20.3125 14.4574 20.3125 13.0422V12.9578C20.3125 11.5426 20.3125 10.4245 20.2344 9.55759C20.1559 8.68698 19.9905 7.93591 19.5623 7.33628C18.9068 6.41824 17.8959 5.82222 16.7783 5.7027Z" fill="#A7A7A7"/>
</svg>
