<svg width="24" height="24" viewBox="0 0 24 24" fill="none" xmlns="http://www.w3.org/2000/svg">
<path d="M15.7803 2.46967C15.4874 2.17678 15.0125 2.17678 14.7196 2.46967C14.4267 2.76256 14.4267 3.23744 14.7196 3.53033L15.4393 4.25L10.8381 4.24998C9.13186 4.24971 8.09064 4.24955 7.22312 4.53142C5.47261 5.1002 4.10017 6.47263 3.5314 8.22315C3.24952 9.09067 3.24969 10.1319 3.24996 11.8382V12.1618C3.24969 13.8681 3.24952 14.9093 3.5314 15.7768C3.6594 16.1708 4.08251 16.3864 4.47645 16.2584C4.87039 16.1304 5.08598 15.7073 4.95798 15.3133C4.75923 14.7016 4.74997 13.9197 4.74997 12C4.74997 10.0803 4.75923 9.29839 4.95798 8.68668C5.37838 7.39282 6.39279 6.37841 7.68665 5.95801C8.29836 5.75925 9.08032 5.75 11 5.75H15.1784L14.5198 6.29883C14.2016 6.56401 14.1586 7.03693 14.4238 7.35514C14.689 7.67335 15.1619 7.71634 15.4801 7.45117L16.8889 6.27719C17.2731 5.95697 17.4839 5.5078 17.5146 5.05027C17.547 4.5677 17.3796 4.06894 17.006 3.69537L15.7803 2.46967Z" fill="#6D6D6D"/>
<path d="M20.4685 8.22315C20.3405 7.82921 19.9174 7.61362 19.5235 7.74162C19.1296 7.86962 18.914 8.29274 19.042 8.68668C19.2407 9.29839 19.25 10.0803 19.25 12C19.25 13.9197 19.2407 14.7016 19.042 15.3133C18.6216 16.6072 17.6072 17.6216 16.3133 18.042C15.7016 18.2407 14.9196 18.25 13 18.25H11C10.0327 18.25 9.35438 18.2478 8.84071 18.2199L9.5303 17.5303C9.8232 17.2374 9.8232 16.7626 9.5303 16.4697C9.23741 16.1768 8.76254 16.1768 8.46964 16.4697L7.24395 17.6954C6.97569 17.9636 6.81256 18.2982 6.755 18.6453C6.65771 19.2321 6.8623 19.8616 7.36106 20.2772L8.76983 21.4512C9.08804 21.7163 9.56096 21.6733 9.82614 21.3551C10.0913 21.0369 10.0483 20.564 9.73011 20.2988L9.04884 19.7311C9.55813 19.7502 10.1454 19.7501 10.8442 19.75H13.1618C14.8681 19.7503 15.9093 19.7504 16.7768 19.4686C18.5273 18.8998 19.8998 17.5274 20.4685 15.7768C20.7504 14.9093 20.7503 13.8681 20.75 12.1618V11.8382C20.7503 10.1319 20.7504 9.09067 20.4685 8.22315Z" fill="#6D6D6D"/>
</svg>
